# xmcd CD database file
#
# Track frame offsets:
#	150
#	14590
#	29158
#	42925
#	57324
#	70261
#	79878
#	90795
#	106021
#	119412
#	133448
#	148219
#	167044
#	178503
#	189986
#	197830
#
# Disc length: 2808 seconds
#
# Revision: 0
# Processed by: cddbd v1.5.1PL0 Copyright (c) Steve Scherf et al.
# Submitted via: CDex 1.50beta10
#
DISCID=e60af610
DTITLE=Nat King Cole - Nat King Cole's Jazz Bar
DYEAR=1900
DGENRE=Jazz
TTITLE0=Unforgettable
TTITLE1=Mona Lisa
TTITLE2=What'll I Do
TTITLE3=Too Young
TTITLE4=(I Love You) For Sentimental Reasons
TTITLE5=My Funny Valentine
TTITLE6=Straighten Up And Fly Right
TTITLE7=Embraceable You
TTITLE8=Lost April
TTITLE9=A Portrait of Jennie
TTITLE10=Red Sails In The Sunset
TTITLE11=The Trouble With Me Is You
TTITLE12=Too Marvelous For Words
TTITLE13=Scotchin' With The Soda
TTITLE14=Just You, Just Me
TTITLE15=Honey Hush
EXTD=
EXTT0=
EXTT1=
EXTT2=
EXTT3=
EXTT4=
EXTT5=
EXTT6=
EXTT7=
EXTT8=
EXTT9=
EXTT10=
EXTT11=
EXTT12=
EXTT13=
EXTT14=
EXTT15=
PLAYORDER=
